<mxfile host="Electron" modified="2025-09-08T13:15:41.922Z" agent="Mozilla/5.0 (Macintosh; Intel Mac OS X 10_15_7) AppleWebKit/537.36 (KHTML, like Gecko) draw.io/23.1.5 Chrome/120.0.6099.109 Electron/28.1.0 Safari/537.36" etag="JAvADFEM22dJO8BiNA3M" version="23.1.5" type="device">
  <diagram name="第 1 页" id="U0KWwwsV1pe8_7JutDu2">
    <mxGraphModel dx="2163" dy="1571" grid="0" gridSize="10" guides="1" tooltips="1" connect="1" arrows="1" fold="1" page="0" pageScale="1" pageWidth="1169" pageHeight="827" background="none" math="0" shadow="1">
      <root>
        <mxCell id="0" />
        <mxCell id="1" parent="0" />
        <mxCell id="A9Hma009ptqyfzRSZnZo-66" value="" style="shape=loopLimit;whiteSpace=wrap;html=1;rotation=-180;size=20;" parent="1" vertex="1">
          <mxGeometry x="140" y="301" width="70" height="40" as="geometry" />
        </mxCell>
        <mxCell id="A9Hma009ptqyfzRSZnZo-68" style="edgeStyle=orthogonalEdgeStyle;rounded=1;orthogonalLoop=1;jettySize=auto;html=1;exitX=0.5;exitY=1;exitDx=0;exitDy=0;strokeColor=#4D4D4D;strokeWidth=4;curved=0;" parent="1" source="A9Hma009ptqyfzRSZnZo-67" edge="1">
          <mxGeometry relative="1" as="geometry">
            <mxPoint x="174.8461538461538" y="399" as="targetPoint" />
          </mxGeometry>
        </mxCell>
        <mxCell id="A9Hma009ptqyfzRSZnZo-67" value="" style="rounded=0;whiteSpace=wrap;html=1;" parent="1" vertex="1">
          <mxGeometry x="160" y="341" width="30" height="10" as="geometry" />
        </mxCell>
        <mxCell id="A9Hma009ptqyfzRSZnZo-70" value="" style="group" parent="1" vertex="1" connectable="0">
          <mxGeometry x="150" y="399" width="160" height="40.69999999999999" as="geometry" />
        </mxCell>
        <mxCell id="A9Hma009ptqyfzRSZnZo-71" value="" style="ellipse;whiteSpace=wrap;html=1;aspect=fixed;" parent="A9Hma009ptqyfzRSZnZo-70" vertex="1">
          <mxGeometry width="9.696969696969697" height="9.696969696969697" as="geometry" />
        </mxCell>
        <mxCell id="A9Hma009ptqyfzRSZnZo-72" value="" style="ellipse;whiteSpace=wrap;html=1;aspect=fixed;" parent="A9Hma009ptqyfzRSZnZo-70" vertex="1">
          <mxGeometry x="133.33333333333334" width="9.696969696969697" height="9.696969696969697" as="geometry" />
        </mxCell>
        <mxCell id="A9Hma009ptqyfzRSZnZo-73" style="rounded=0;orthogonalLoop=1;jettySize=auto;html=1;exitX=0.5;exitY=0;exitDx=0;exitDy=0;entryX=0.5;entryY=0;entryDx=0;entryDy=0;endArrow=none;endFill=0;" parent="A9Hma009ptqyfzRSZnZo-70" source="A9Hma009ptqyfzRSZnZo-71" target="A9Hma009ptqyfzRSZnZo-72" edge="1">
          <mxGeometry relative="1" as="geometry" />
        </mxCell>
        <mxCell id="A9Hma009ptqyfzRSZnZo-74" style="rounded=0;orthogonalLoop=1;jettySize=auto;html=1;exitX=0.5;exitY=1;exitDx=0;exitDy=0;entryX=0.5;entryY=1;entryDx=0;entryDy=0;endArrow=none;endFill=0;" parent="A9Hma009ptqyfzRSZnZo-70" source="A9Hma009ptqyfzRSZnZo-71" target="A9Hma009ptqyfzRSZnZo-72" edge="1">
          <mxGeometry relative="1" as="geometry" />
        </mxCell>
        <mxCell id="A9Hma009ptqyfzRSZnZo-241" value="&lt;font style=&quot;font-size: 16px;&quot;&gt;给煤机&lt;/font&gt;" style="text;html=1;align=center;verticalAlign=middle;resizable=0;points=[];autosize=1;strokeColor=none;fillColor=none;" parent="A9Hma009ptqyfzRSZnZo-70" vertex="1">
          <mxGeometry x="32" y="9.699999999999989" width="66" height="31" as="geometry" />
        </mxCell>
        <mxCell id="A9Hma009ptqyfzRSZnZo-95" value="" style="group" parent="1" vertex="1" connectable="0">
          <mxGeometry x="230" y="459" width="120" height="140" as="geometry" />
        </mxCell>
        <mxCell id="A9Hma009ptqyfzRSZnZo-96" value="" style="shape=trapezoid;perimeter=trapezoidPerimeter;whiteSpace=wrap;html=1;fixedSize=1;" parent="A9Hma009ptqyfzRSZnZo-95" vertex="1">
          <mxGeometry y="110" width="120" height="30" as="geometry" />
        </mxCell>
        <mxCell id="A9Hma009ptqyfzRSZnZo-97" value="" style="rounded=0;whiteSpace=wrap;html=1;" parent="A9Hma009ptqyfzRSZnZo-95" vertex="1">
          <mxGeometry x="10" y="100" width="100" height="10" as="geometry" />
        </mxCell>
        <mxCell id="A9Hma009ptqyfzRSZnZo-98" value="&lt;font style=&quot;font-size: 16px;&quot;&gt;磨煤机&lt;/font&gt;" style="rounded=0;whiteSpace=wrap;html=1;" parent="A9Hma009ptqyfzRSZnZo-95" vertex="1">
          <mxGeometry x="20" y="50" width="80" height="50" as="geometry" />
        </mxCell>
        <mxCell id="A9Hma009ptqyfzRSZnZo-99" value="" style="rounded=0;whiteSpace=wrap;html=1;" parent="A9Hma009ptqyfzRSZnZo-95" vertex="1">
          <mxGeometry x="30" y="30" width="60" height="20" as="geometry" />
        </mxCell>
        <mxCell id="A9Hma009ptqyfzRSZnZo-101" style="edgeStyle=orthogonalEdgeStyle;rounded=0;orthogonalLoop=1;jettySize=auto;html=1;exitX=0.75;exitY=1;exitDx=0;exitDy=0;endArrow=none;endFill=0;startArrow=classic;startFill=1;strokeColor=#4D4D4D;strokeWidth=4;" parent="A9Hma009ptqyfzRSZnZo-95" source="A9Hma009ptqyfzRSZnZo-100" edge="1">
          <mxGeometry relative="1" as="geometry">
            <mxPoint x="35" y="-50" as="targetPoint" />
            <Array as="points">
              <mxPoint x="35" y="-50" />
            </Array>
          </mxGeometry>
        </mxCell>
        <mxCell id="A9Hma009ptqyfzRSZnZo-100" value="" style="shape=trapezoid;perimeter=trapezoidPerimeter;whiteSpace=wrap;html=1;fixedSize=1;rotation=-180;" parent="A9Hma009ptqyfzRSZnZo-95" vertex="1">
          <mxGeometry x="10" width="100" height="30" as="geometry" />
        </mxCell>
        <mxCell id="A9Hma009ptqyfzRSZnZo-138" value="" style="group" parent="1" vertex="1" connectable="0">
          <mxGeometry x="920" y="200" width="80" height="120" as="geometry" />
        </mxCell>
        <mxCell id="A9Hma009ptqyfzRSZnZo-139" value="" style="endArrow=none;html=1;rounded=0;" parent="A9Hma009ptqyfzRSZnZo-138" edge="1">
          <mxGeometry width="50" height="50" relative="1" as="geometry">
            <mxPoint y="120" as="sourcePoint" />
            <mxPoint x="80" y="80" as="targetPoint" />
          </mxGeometry>
        </mxCell>
        <mxCell id="A9Hma009ptqyfzRSZnZo-140" value="" style="endArrow=none;html=1;rounded=0;" parent="A9Hma009ptqyfzRSZnZo-138" edge="1">
          <mxGeometry width="50" height="50" relative="1" as="geometry">
            <mxPoint y="120" as="sourcePoint" />
            <mxPoint as="targetPoint" />
          </mxGeometry>
        </mxCell>
        <mxCell id="A9Hma009ptqyfzRSZnZo-141" value="" style="endArrow=none;html=1;rounded=0;" parent="A9Hma009ptqyfzRSZnZo-138" edge="1">
          <mxGeometry width="50" height="50" relative="1" as="geometry">
            <mxPoint x="80" y="40" as="sourcePoint" />
            <mxPoint as="targetPoint" />
          </mxGeometry>
        </mxCell>
        <mxCell id="A9Hma009ptqyfzRSZnZo-142" value="" style="endArrow=none;html=1;rounded=0;" parent="A9Hma009ptqyfzRSZnZo-138" edge="1">
          <mxGeometry width="50" height="50" relative="1" as="geometry">
            <mxPoint x="80" y="80" as="sourcePoint" />
            <mxPoint x="80" y="40" as="targetPoint" />
          </mxGeometry>
        </mxCell>
        <mxCell id="A9Hma009ptqyfzRSZnZo-145" value="" style="group" parent="1" vertex="1" connectable="0">
          <mxGeometry x="1080" y="200" width="160" height="120" as="geometry" />
        </mxCell>
        <mxCell id="A9Hma009ptqyfzRSZnZo-134" value="" style="endArrow=none;html=1;rounded=0;" parent="A9Hma009ptqyfzRSZnZo-145" edge="1">
          <mxGeometry width="50" height="50" relative="1" as="geometry">
            <mxPoint x="160" as="sourcePoint" />
            <mxPoint x="80" y="40" as="targetPoint" />
          </mxGeometry>
        </mxCell>
        <mxCell id="A9Hma009ptqyfzRSZnZo-135" value="" style="endArrow=none;html=1;rounded=0;" parent="A9Hma009ptqyfzRSZnZo-145" edge="1">
          <mxGeometry width="50" height="50" relative="1" as="geometry">
            <mxPoint x="160" as="sourcePoint" />
            <mxPoint x="160" y="120" as="targetPoint" />
          </mxGeometry>
        </mxCell>
        <mxCell id="A9Hma009ptqyfzRSZnZo-136" value="" style="endArrow=none;html=1;rounded=0;" parent="A9Hma009ptqyfzRSZnZo-145" edge="1">
          <mxGeometry width="50" height="50" relative="1" as="geometry">
            <mxPoint x="80" y="80" as="sourcePoint" />
            <mxPoint x="160" y="120" as="targetPoint" />
          </mxGeometry>
        </mxCell>
        <mxCell id="A9Hma009ptqyfzRSZnZo-128" value="" style="endArrow=none;html=1;rounded=0;" parent="A9Hma009ptqyfzRSZnZo-145" edge="1">
          <mxGeometry width="50" height="50" relative="1" as="geometry">
            <mxPoint y="120" as="sourcePoint" />
            <mxPoint x="80" y="80" as="targetPoint" />
          </mxGeometry>
        </mxCell>
        <mxCell id="A9Hma009ptqyfzRSZnZo-129" value="" style="endArrow=none;html=1;rounded=0;" parent="A9Hma009ptqyfzRSZnZo-145" edge="1">
          <mxGeometry width="50" height="50" relative="1" as="geometry">
            <mxPoint y="120" as="sourcePoint" />
            <mxPoint as="targetPoint" />
          </mxGeometry>
        </mxCell>
        <mxCell id="A9Hma009ptqyfzRSZnZo-130" value="" style="endArrow=none;html=1;rounded=0;" parent="A9Hma009ptqyfzRSZnZo-145" edge="1">
          <mxGeometry width="50" height="50" relative="1" as="geometry">
            <mxPoint x="80" y="40" as="sourcePoint" />
            <mxPoint as="targetPoint" />
          </mxGeometry>
        </mxCell>
        <mxCell id="A9Hma009ptqyfzRSZnZo-160" value="&lt;font style=&quot;font-size: 16px;&quot;&gt;中压缸&lt;/font&gt;" style="text;html=1;align=center;verticalAlign=middle;resizable=0;points=[];autosize=1;strokeColor=none;fillColor=none;" parent="A9Hma009ptqyfzRSZnZo-145" vertex="1">
          <mxGeometry x="45" y="45" width="70" height="30" as="geometry" />
        </mxCell>
        <mxCell id="A9Hma009ptqyfzRSZnZo-146" value="" style="group" parent="1" vertex="1" connectable="0">
          <mxGeometry x="1320" y="200" width="160" height="120" as="geometry" />
        </mxCell>
        <mxCell id="A9Hma009ptqyfzRSZnZo-147" value="" style="endArrow=none;html=1;rounded=0;" parent="A9Hma009ptqyfzRSZnZo-146" edge="1">
          <mxGeometry width="50" height="50" relative="1" as="geometry">
            <mxPoint x="160" as="sourcePoint" />
            <mxPoint x="80" y="40" as="targetPoint" />
          </mxGeometry>
        </mxCell>
        <mxCell id="A9Hma009ptqyfzRSZnZo-148" value="" style="endArrow=none;html=1;rounded=0;" parent="A9Hma009ptqyfzRSZnZo-146" edge="1">
          <mxGeometry width="50" height="50" relative="1" as="geometry">
            <mxPoint x="160" as="sourcePoint" />
            <mxPoint x="160" y="120" as="targetPoint" />
          </mxGeometry>
        </mxCell>
        <mxCell id="A9Hma009ptqyfzRSZnZo-149" value="" style="endArrow=none;html=1;rounded=0;" parent="A9Hma009ptqyfzRSZnZo-146" edge="1">
          <mxGeometry width="50" height="50" relative="1" as="geometry">
            <mxPoint x="80" y="80" as="sourcePoint" />
            <mxPoint x="160" y="120" as="targetPoint" />
          </mxGeometry>
        </mxCell>
        <mxCell id="A9Hma009ptqyfzRSZnZo-150" value="" style="endArrow=none;html=1;rounded=0;" parent="A9Hma009ptqyfzRSZnZo-146" edge="1">
          <mxGeometry width="50" height="50" relative="1" as="geometry">
            <mxPoint y="120" as="sourcePoint" />
            <mxPoint x="80" y="80" as="targetPoint" />
          </mxGeometry>
        </mxCell>
        <mxCell id="A9Hma009ptqyfzRSZnZo-151" value="" style="endArrow=none;html=1;rounded=0;" parent="A9Hma009ptqyfzRSZnZo-146" edge="1">
          <mxGeometry width="50" height="50" relative="1" as="geometry">
            <mxPoint y="120" as="sourcePoint" />
            <mxPoint as="targetPoint" />
          </mxGeometry>
        </mxCell>
        <mxCell id="A9Hma009ptqyfzRSZnZo-152" value="" style="endArrow=none;html=1;rounded=0;" parent="A9Hma009ptqyfzRSZnZo-146" edge="1">
          <mxGeometry width="50" height="50" relative="1" as="geometry">
            <mxPoint x="80" y="40" as="sourcePoint" />
            <mxPoint as="targetPoint" />
          </mxGeometry>
        </mxCell>
        <mxCell id="A9Hma009ptqyfzRSZnZo-161" value="&lt;font style=&quot;font-size: 16px;&quot;&gt;低压缸&lt;/font&gt;" style="text;html=1;align=center;verticalAlign=middle;resizable=0;points=[];autosize=1;strokeColor=none;fillColor=none;" parent="A9Hma009ptqyfzRSZnZo-146" vertex="1">
          <mxGeometry x="45" y="45" width="70" height="30" as="geometry" />
        </mxCell>
        <mxCell id="A9Hma009ptqyfzRSZnZo-153" value="" style="ellipse;whiteSpace=wrap;html=1;aspect=fixed;" parent="1" vertex="1">
          <mxGeometry x="1560" y="220" width="80" height="80" as="geometry" />
        </mxCell>
        <mxCell id="A9Hma009ptqyfzRSZnZo-155" value="" style="endArrow=none;html=1;rounded=0;edgeStyle=orthogonalEdgeStyle;curved=1;" parent="1" edge="1">
          <mxGeometry width="50" height="50" relative="1" as="geometry">
            <mxPoint x="1570" y="260" as="sourcePoint" />
            <mxPoint x="1630" y="260" as="targetPoint" />
            <Array as="points">
              <mxPoint x="1570" y="240" />
              <mxPoint x="1600" y="240" />
              <mxPoint x="1600" y="280" />
              <mxPoint x="1630" y="280" />
            </Array>
          </mxGeometry>
        </mxCell>
        <mxCell id="A9Hma009ptqyfzRSZnZo-156" value="" style="endArrow=none;html=1;rounded=0;" parent="1" edge="1">
          <mxGeometry width="50" height="50" relative="1" as="geometry">
            <mxPoint x="1000" y="260" as="sourcePoint" />
            <mxPoint x="1080" y="260" as="targetPoint" />
          </mxGeometry>
        </mxCell>
        <mxCell id="A9Hma009ptqyfzRSZnZo-157" value="" style="endArrow=none;html=1;rounded=0;" parent="1" edge="1">
          <mxGeometry width="50" height="50" relative="1" as="geometry">
            <mxPoint x="1240" y="259.71" as="sourcePoint" />
            <mxPoint x="1320" y="259.71" as="targetPoint" />
          </mxGeometry>
        </mxCell>
        <mxCell id="A9Hma009ptqyfzRSZnZo-158" value="" style="endArrow=none;html=1;rounded=0;" parent="1" edge="1">
          <mxGeometry width="50" height="50" relative="1" as="geometry">
            <mxPoint x="1480" y="259.71" as="sourcePoint" />
            <mxPoint x="1560" y="259.71" as="targetPoint" />
          </mxGeometry>
        </mxCell>
        <mxCell id="A9Hma009ptqyfzRSZnZo-159" value="&lt;font style=&quot;font-size: 16px;&quot;&gt;高压缸&lt;/font&gt;" style="text;html=1;align=center;verticalAlign=middle;resizable=0;points=[];autosize=1;strokeColor=none;fillColor=none;" parent="1" vertex="1">
          <mxGeometry x="925" y="248" width="70" height="30" as="geometry" />
        </mxCell>
        <mxCell id="A9Hma009ptqyfzRSZnZo-162" value="&lt;font style=&quot;font-size: 16px;&quot;&gt;发电机&lt;/font&gt;" style="text;html=1;align=center;verticalAlign=middle;resizable=0;points=[];autosize=1;strokeColor=none;fillColor=none;" parent="1" vertex="1">
          <mxGeometry x="1650" y="245" width="70" height="30" as="geometry" />
        </mxCell>
        <mxCell id="A9Hma009ptqyfzRSZnZo-197" style="edgeStyle=orthogonalEdgeStyle;rounded=1;orthogonalLoop=1;jettySize=auto;html=1;endArrow=none;endFill=0;exitX=0;exitY=0.5;exitDx=0;exitDy=0;startArrow=classic;startFill=1;strokeColor=#CC6600;strokeWidth=4;curved=0;" parent="1" source="A9Hma009ptqyfzRSZnZo-163" edge="1">
          <mxGeometry relative="1" as="geometry">
            <mxPoint x="750" y="500" as="targetPoint" />
            <mxPoint x="900" y="60" as="sourcePoint" />
            <Array as="points">
              <mxPoint x="830" y="60" />
              <mxPoint x="830" y="600" />
              <mxPoint x="750" y="600" />
            </Array>
          </mxGeometry>
        </mxCell>
        <mxCell id="A9Hma009ptqyfzRSZnZo-163" value="&lt;font style=&quot;font-size: 16px;&quot;&gt;静电除尘器&lt;/font&gt;" style="rounded=0;whiteSpace=wrap;html=1;" parent="1" vertex="1">
          <mxGeometry x="920" y="30" width="120" height="60" as="geometry" />
        </mxCell>
        <mxCell id="A9Hma009ptqyfzRSZnZo-164" value="" style="triangle;whiteSpace=wrap;html=1;rotation=90;" parent="1" vertex="1">
          <mxGeometry x="920" y="90" width="20" height="20" as="geometry" />
        </mxCell>
        <mxCell id="A9Hma009ptqyfzRSZnZo-165" value="" style="triangle;whiteSpace=wrap;html=1;rotation=90;" parent="1" vertex="1">
          <mxGeometry x="940" y="90" width="20" height="20" as="geometry" />
        </mxCell>
        <mxCell id="A9Hma009ptqyfzRSZnZo-166" value="" style="triangle;whiteSpace=wrap;html=1;rotation=90;" parent="1" vertex="1">
          <mxGeometry x="960" y="90" width="20" height="20" as="geometry" />
        </mxCell>
        <mxCell id="A9Hma009ptqyfzRSZnZo-167" value="" style="triangle;whiteSpace=wrap;html=1;rotation=90;" parent="1" vertex="1">
          <mxGeometry x="980" y="90" width="20" height="20" as="geometry" />
        </mxCell>
        <mxCell id="A9Hma009ptqyfzRSZnZo-168" value="" style="triangle;whiteSpace=wrap;html=1;rotation=90;" parent="1" vertex="1">
          <mxGeometry x="1000" y="90" width="20" height="20" as="geometry" />
        </mxCell>
        <mxCell id="A9Hma009ptqyfzRSZnZo-170" value="" style="triangle;whiteSpace=wrap;html=1;rotation=90;" parent="1" vertex="1">
          <mxGeometry x="1020" y="90" width="20" height="20" as="geometry" />
        </mxCell>
        <mxCell id="A9Hma009ptqyfzRSZnZo-171" value="" style="group;rotation=-180;" parent="1" vertex="1" connectable="0">
          <mxGeometry x="1100" y="40" width="50" height="40" as="geometry" />
        </mxCell>
        <mxCell id="A9Hma009ptqyfzRSZnZo-172" value="" style="verticalLabelPosition=bottom;verticalAlign=top;html=1;shape=mxgraph.basic.arc;startAngle=0.9968173254495136;endAngle=0.7484085036175459;rotation=-180;" parent="A9Hma009ptqyfzRSZnZo-171" vertex="1">
          <mxGeometry width="41.66666666666667" height="40" as="geometry" />
        </mxCell>
        <mxCell id="A9Hma009ptqyfzRSZnZo-173" value="" style="endArrow=none;html=1;rounded=0;entryX=0.5;entryY=0;entryDx=0;entryDy=0;entryPerimeter=0;" parent="A9Hma009ptqyfzRSZnZo-171" target="A9Hma009ptqyfzRSZnZo-172" edge="1">
          <mxGeometry width="50" height="50" relative="1" as="geometry">
            <mxPoint x="50" y="40" as="sourcePoint" />
            <mxPoint x="-62" y="-4" as="targetPoint" />
          </mxGeometry>
        </mxCell>
        <mxCell id="A9Hma009ptqyfzRSZnZo-174" value="" style="endArrow=none;html=1;rounded=0;" parent="A9Hma009ptqyfzRSZnZo-171" target="A9Hma009ptqyfzRSZnZo-172" edge="1">
          <mxGeometry width="50" height="50" relative="1" as="geometry">
            <mxPoint x="50" y="20" as="sourcePoint" />
            <mxPoint x="42" y="20" as="targetPoint" />
          </mxGeometry>
        </mxCell>
        <mxCell id="A9Hma009ptqyfzRSZnZo-175" value="" style="endArrow=none;html=1;rounded=0;" parent="A9Hma009ptqyfzRSZnZo-171" edge="1">
          <mxGeometry width="50" height="50" relative="1" as="geometry">
            <mxPoint x="50" y="20" as="sourcePoint" />
            <mxPoint x="50" y="40" as="targetPoint" />
          </mxGeometry>
        </mxCell>
        <mxCell id="A9Hma009ptqyfzRSZnZo-176" value="" style="ellipse;whiteSpace=wrap;html=1;aspect=fixed;rotation=-180;" parent="A9Hma009ptqyfzRSZnZo-171" vertex="1">
          <mxGeometry x="14" y="15" width="13.5" height="13.5" as="geometry" />
        </mxCell>
        <mxCell id="A9Hma009ptqyfzRSZnZo-185" value="" style="group" parent="1" vertex="1" connectable="0">
          <mxGeometry x="1200" width="120" height="120" as="geometry" />
        </mxCell>
        <mxCell id="A9Hma009ptqyfzRSZnZo-177" value="" style="endArrow=none;html=1;rounded=0;" parent="A9Hma009ptqyfzRSZnZo-185" edge="1">
          <mxGeometry width="50" height="50" relative="1" as="geometry">
            <mxPoint y="120" as="sourcePoint" />
            <mxPoint y="20" as="targetPoint" />
          </mxGeometry>
        </mxCell>
        <mxCell id="A9Hma009ptqyfzRSZnZo-178" value="" style="endArrow=none;html=1;rounded=0;" parent="A9Hma009ptqyfzRSZnZo-185" edge="1">
          <mxGeometry width="50" height="50" relative="1" as="geometry">
            <mxPoint y="120" as="sourcePoint" />
            <mxPoint x="80" y="120" as="targetPoint" />
          </mxGeometry>
        </mxCell>
        <mxCell id="A9Hma009ptqyfzRSZnZo-179" value="" style="endArrow=none;html=1;rounded=0;" parent="A9Hma009ptqyfzRSZnZo-185" edge="1">
          <mxGeometry width="50" height="50" relative="1" as="geometry">
            <mxPoint x="80" y="120" as="sourcePoint" />
            <mxPoint x="80" y="30" as="targetPoint" />
          </mxGeometry>
        </mxCell>
        <mxCell id="A9Hma009ptqyfzRSZnZo-180" value="" style="endArrow=none;html=1;rounded=0;" parent="A9Hma009ptqyfzRSZnZo-185" edge="1">
          <mxGeometry width="50" height="50" relative="1" as="geometry">
            <mxPoint x="60" y="10" as="sourcePoint" />
            <mxPoint x="80" y="30" as="targetPoint" />
          </mxGeometry>
        </mxCell>
        <mxCell id="A9Hma009ptqyfzRSZnZo-181" value="" style="endArrow=none;html=1;rounded=0;" parent="A9Hma009ptqyfzRSZnZo-185" edge="1">
          <mxGeometry width="50" height="50" relative="1" as="geometry">
            <mxPoint x="20" as="sourcePoint" />
            <mxPoint y="20" as="targetPoint" />
          </mxGeometry>
        </mxCell>
        <mxCell id="A9Hma009ptqyfzRSZnZo-182" value="" style="endArrow=none;html=1;rounded=0;" parent="A9Hma009ptqyfzRSZnZo-185" edge="1">
          <mxGeometry width="50" height="50" relative="1" as="geometry">
            <mxPoint x="120" as="sourcePoint" />
            <mxPoint x="20" as="targetPoint" />
          </mxGeometry>
        </mxCell>
        <mxCell id="A9Hma009ptqyfzRSZnZo-183" value="" style="endArrow=none;html=1;rounded=0;" parent="A9Hma009ptqyfzRSZnZo-185" edge="1">
          <mxGeometry width="50" height="50" relative="1" as="geometry">
            <mxPoint x="120" y="10" as="sourcePoint" />
            <mxPoint x="60" y="10" as="targetPoint" />
          </mxGeometry>
        </mxCell>
        <mxCell id="A9Hma009ptqyfzRSZnZo-184" value="" style="endArrow=none;html=1;rounded=0;" parent="A9Hma009ptqyfzRSZnZo-185" edge="1">
          <mxGeometry width="50" height="50" relative="1" as="geometry">
            <mxPoint x="120" as="sourcePoint" />
            <mxPoint x="120" y="10" as="targetPoint" />
          </mxGeometry>
        </mxCell>
        <mxCell id="A9Hma009ptqyfzRSZnZo-186" value="&lt;font style=&quot;font-size: 16px;&quot;&gt;湿式静电除尘器&lt;/font&gt;" style="rounded=0;whiteSpace=wrap;html=1;" parent="1" vertex="1">
          <mxGeometry x="1400" y="20" width="120" height="80" as="geometry" />
        </mxCell>
        <mxCell id="A9Hma009ptqyfzRSZnZo-187" value="&lt;font style=&quot;font-size: 16px;&quot;&gt;烟&lt;br&gt;囱&lt;/font&gt;" style="shape=trapezoid;perimeter=trapezoidPerimeter;whiteSpace=wrap;html=1;fixedSize=1;" parent="1" vertex="1">
          <mxGeometry x="1630" y="-80" width="60" height="200" as="geometry" />
        </mxCell>
        <mxCell id="A9Hma009ptqyfzRSZnZo-195" value="&lt;font style=&quot;font-size: 16px;&quot;&gt;冷却塔&lt;/font&gt;" style="shape=trapezoid;perimeter=trapezoidPerimeter;whiteSpace=wrap;html=1;fixedSize=1;size=40;" parent="1" vertex="1">
          <mxGeometry x="1800" y="220" width="200" height="210" as="geometry" />
        </mxCell>
        <mxCell id="A9Hma009ptqyfzRSZnZo-196" value="" style="rounded=0;whiteSpace=wrap;html=1;" parent="1" vertex="1">
          <mxGeometry x="1800" y="430" width="200" height="10" as="geometry" />
        </mxCell>
        <mxCell id="A9Hma009ptqyfzRSZnZo-200" value="" style="endArrow=classic;html=1;rounded=0;strokeWidth=4;strokeColor=#CC6600;" parent="1" edge="1">
          <mxGeometry width="50" height="50" relative="1" as="geometry">
            <mxPoint x="1150" y="70" as="sourcePoint" />
            <mxPoint x="1200" y="70" as="targetPoint" />
          </mxGeometry>
        </mxCell>
        <mxCell id="A9Hma009ptqyfzRSZnZo-201" value="" style="endArrow=classic;html=1;rounded=0;exitX=1;exitY=0.5;exitDx=0;exitDy=0;entryX=1.018;entryY=0.502;entryDx=0;entryDy=0;entryPerimeter=0;strokeWidth=4;strokeColor=#CC6600;" parent="1" source="A9Hma009ptqyfzRSZnZo-163" target="A9Hma009ptqyfzRSZnZo-172" edge="1">
          <mxGeometry width="50" height="50" relative="1" as="geometry">
            <mxPoint x="1120" y="90" as="sourcePoint" />
            <mxPoint x="1170" y="40" as="targetPoint" />
          </mxGeometry>
        </mxCell>
        <mxCell id="A9Hma009ptqyfzRSZnZo-202" value="" style="endArrow=classic;html=1;rounded=0;strokeWidth=4;strokeColor=#CC6600;entryX=0;entryY=0.5;entryDx=0;entryDy=0;" parent="1" target="A9Hma009ptqyfzRSZnZo-186" edge="1">
          <mxGeometry width="50" height="50" relative="1" as="geometry">
            <mxPoint x="1280" y="60" as="sourcePoint" />
            <mxPoint x="1210" y="80" as="targetPoint" />
          </mxGeometry>
        </mxCell>
        <mxCell id="A9Hma009ptqyfzRSZnZo-203" value="" style="endArrow=classic;html=1;rounded=0;strokeWidth=4;strokeColor=#CC6600;entryX=0;entryY=0.75;entryDx=0;entryDy=0;exitX=1;exitY=0.5;exitDx=0;exitDy=0;" parent="1" source="A9Hma009ptqyfzRSZnZo-186" target="A9Hma009ptqyfzRSZnZo-187" edge="1">
          <mxGeometry width="50" height="50" relative="1" as="geometry">
            <mxPoint x="1290" y="70" as="sourcePoint" />
            <mxPoint x="1410" y="70" as="targetPoint" />
          </mxGeometry>
        </mxCell>
        <mxCell id="A9Hma009ptqyfzRSZnZo-204" value="&lt;font style=&quot;font-size: 16px;&quot;&gt;脱硫装置&lt;/font&gt;" style="text;html=1;align=center;verticalAlign=middle;resizable=0;points=[];autosize=1;strokeColor=none;fillColor=none;" parent="1" vertex="1">
          <mxGeometry x="1195" y="58" width="90" height="30" as="geometry" />
        </mxCell>
        <mxCell id="A9Hma009ptqyfzRSZnZo-205" value="" style="ellipse;whiteSpace=wrap;html=1;" parent="1" vertex="1">
          <mxGeometry x="1680" y="-170" width="60" height="20" as="geometry" />
        </mxCell>
        <mxCell id="A9Hma009ptqyfzRSZnZo-206" value="" style="ellipse;whiteSpace=wrap;html=1;" parent="1" vertex="1">
          <mxGeometry x="1670" y="-130" width="30" height="10" as="geometry" />
        </mxCell>
        <mxCell id="A9Hma009ptqyfzRSZnZo-207" value="" style="ellipse;whiteSpace=wrap;html=1;" parent="1" vertex="1">
          <mxGeometry x="1660" y="-110" width="20" height="10" as="geometry" />
        </mxCell>
        <mxCell id="A9Hma009ptqyfzRSZnZo-209" value="" style="group;rotation=0;" parent="1" vertex="1" connectable="0">
          <mxGeometry x="900" y="550" width="50" height="40" as="geometry" />
        </mxCell>
        <mxCell id="A9Hma009ptqyfzRSZnZo-210" value="" style="verticalLabelPosition=bottom;verticalAlign=top;html=1;shape=mxgraph.basic.arc;startAngle=0.9968173254495136;endAngle=0.7484085036175459;rotation=0;" parent="A9Hma009ptqyfzRSZnZo-209" vertex="1">
          <mxGeometry x="8" width="41.66666666666667" height="40" as="geometry" />
        </mxCell>
        <mxCell id="A9Hma009ptqyfzRSZnZo-211" value="" style="endArrow=none;html=1;rounded=0;entryX=0.5;entryY=0;entryDx=0;entryDy=0;entryPerimeter=0;" parent="A9Hma009ptqyfzRSZnZo-209" target="A9Hma009ptqyfzRSZnZo-210" edge="1">
          <mxGeometry width="50" height="50" relative="1" as="geometry">
            <mxPoint as="sourcePoint" />
            <mxPoint x="112" y="44" as="targetPoint" />
          </mxGeometry>
        </mxCell>
        <mxCell id="A9Hma009ptqyfzRSZnZo-212" value="" style="endArrow=none;html=1;rounded=0;" parent="A9Hma009ptqyfzRSZnZo-209" target="A9Hma009ptqyfzRSZnZo-210" edge="1">
          <mxGeometry width="50" height="50" relative="1" as="geometry">
            <mxPoint y="20" as="sourcePoint" />
            <mxPoint x="8" y="20" as="targetPoint" />
          </mxGeometry>
        </mxCell>
        <mxCell id="A9Hma009ptqyfzRSZnZo-213" value="" style="endArrow=none;html=1;rounded=0;" parent="A9Hma009ptqyfzRSZnZo-209" edge="1">
          <mxGeometry width="50" height="50" relative="1" as="geometry">
            <mxPoint y="20" as="sourcePoint" />
            <mxPoint as="targetPoint" />
          </mxGeometry>
        </mxCell>
        <mxCell id="A9Hma009ptqyfzRSZnZo-214" value="" style="ellipse;whiteSpace=wrap;html=1;aspect=fixed;rotation=0;" parent="A9Hma009ptqyfzRSZnZo-209" vertex="1">
          <mxGeometry x="23" y="12" width="13.5" height="13.5" as="geometry" />
        </mxCell>
        <mxCell id="A9Hma009ptqyfzRSZnZo-215" value="" style="group;rotation=0;" parent="1" vertex="1" connectable="0">
          <mxGeometry x="900" y="601" width="50" height="40" as="geometry" />
        </mxCell>
        <mxCell id="A9Hma009ptqyfzRSZnZo-216" value="" style="verticalLabelPosition=bottom;verticalAlign=top;html=1;shape=mxgraph.basic.arc;startAngle=0.9968173254495136;endAngle=0.7484085036175459;rotation=0;" parent="A9Hma009ptqyfzRSZnZo-215" vertex="1">
          <mxGeometry x="8" width="41.66666666666667" height="40" as="geometry" />
        </mxCell>
        <mxCell id="A9Hma009ptqyfzRSZnZo-217" value="" style="endArrow=none;html=1;rounded=0;entryX=0.5;entryY=0;entryDx=0;entryDy=0;entryPerimeter=0;" parent="A9Hma009ptqyfzRSZnZo-215" target="A9Hma009ptqyfzRSZnZo-216" edge="1">
          <mxGeometry width="50" height="50" relative="1" as="geometry">
            <mxPoint as="sourcePoint" />
            <mxPoint x="112" y="44" as="targetPoint" />
          </mxGeometry>
        </mxCell>
        <mxCell id="A9Hma009ptqyfzRSZnZo-218" value="" style="endArrow=none;html=1;rounded=0;" parent="A9Hma009ptqyfzRSZnZo-215" target="A9Hma009ptqyfzRSZnZo-216" edge="1">
          <mxGeometry width="50" height="50" relative="1" as="geometry">
            <mxPoint y="20" as="sourcePoint" />
            <mxPoint x="8" y="20" as="targetPoint" />
          </mxGeometry>
        </mxCell>
        <mxCell id="A9Hma009ptqyfzRSZnZo-219" value="" style="endArrow=none;html=1;rounded=0;" parent="A9Hma009ptqyfzRSZnZo-215" edge="1">
          <mxGeometry width="50" height="50" relative="1" as="geometry">
            <mxPoint y="20" as="sourcePoint" />
            <mxPoint as="targetPoint" />
          </mxGeometry>
        </mxCell>
        <mxCell id="A9Hma009ptqyfzRSZnZo-220" value="" style="ellipse;whiteSpace=wrap;html=1;aspect=fixed;rotation=0;" parent="A9Hma009ptqyfzRSZnZo-215" vertex="1">
          <mxGeometry x="23" y="12" width="13.5" height="13.5" as="geometry" />
        </mxCell>
        <mxCell id="A9Hma009ptqyfzRSZnZo-222" value="&lt;font style=&quot;font-size: 16px;&quot;&gt;二次风机（送风机）&lt;/font&gt;" style="text;html=1;align=center;verticalAlign=middle;resizable=0;points=[];autosize=1;strokeColor=none;fillColor=none;" parent="1" vertex="1">
          <mxGeometry x="960" y="554.5" width="162" height="31" as="geometry" />
        </mxCell>
        <mxCell id="A9Hma009ptqyfzRSZnZo-223" value="&lt;font style=&quot;font-size: 16px;&quot;&gt;一次风机&lt;/font&gt;" style="text;html=1;align=center;verticalAlign=middle;resizable=0;points=[];autosize=1;strokeColor=none;fillColor=none;" parent="1" vertex="1">
          <mxGeometry x="960" y="605.5" width="82" height="31" as="geometry" />
        </mxCell>
        <mxCell id="A9Hma009ptqyfzRSZnZo-224" value="" style="endArrow=classic;html=1;rounded=1;strokeWidth=4;strokeColor=#4D9900;entryX=1;entryY=0.25;entryDx=0;entryDy=0;jumpStyle=arc;edgeStyle=orthogonalEdgeStyle;" parent="1" target="A9Hma009ptqyfzRSZnZo-106" edge="1">
          <mxGeometry width="50" height="50" relative="1" as="geometry">
            <mxPoint x="900" y="560" as="sourcePoint" />
            <mxPoint x="860" y="460" as="targetPoint" />
            <Array as="points">
              <mxPoint x="890" y="427" />
            </Array>
          </mxGeometry>
        </mxCell>
        <mxCell id="A9Hma009ptqyfzRSZnZo-225" value="" style="endArrow=classic;html=1;rounded=1;strokeWidth=4;strokeColor=#66CC00;entryX=1;entryY=0.75;entryDx=0;entryDy=0;jumpStyle=arc;edgeStyle=orthogonalEdgeStyle;" parent="1" target="A9Hma009ptqyfzRSZnZo-106" edge="1">
          <mxGeometry width="50" height="50" relative="1" as="geometry">
            <mxPoint x="900" y="610" as="sourcePoint" />
            <mxPoint x="797" y="448" as="targetPoint" />
            <Array as="points">
              <mxPoint x="870" y="610" />
              <mxPoint x="870" y="447" />
            </Array>
          </mxGeometry>
        </mxCell>
        <mxCell id="A9Hma009ptqyfzRSZnZo-227" value="" style="endArrow=classic;html=1;rounded=0;strokeWidth=4;strokeColor=#4D9900;exitX=0;exitY=0.25;exitDx=0;exitDy=0;" parent="1" source="A9Hma009ptqyfzRSZnZo-106" edge="1">
          <mxGeometry width="50" height="50" relative="1" as="geometry">
            <mxPoint x="706" y="427.0138888888888" as="sourcePoint" />
            <mxPoint x="646" y="427" as="targetPoint" />
          </mxGeometry>
        </mxCell>
        <mxCell id="A9Hma009ptqyfzRSZnZo-228" value="" style="endArrow=classic;html=1;rounded=1;strokeWidth=4;strokeColor=#66CC00;exitX=0;exitY=0.75;exitDx=0;exitDy=0;entryX=1;entryY=0.5;entryDx=0;entryDy=0;curved=0;" parent="1" source="A9Hma009ptqyfzRSZnZo-106" target="A9Hma009ptqyfzRSZnZo-96" edge="1">
          <mxGeometry width="50" height="50" relative="1" as="geometry">
            <mxPoint x="720" y="448" as="sourcePoint" />
            <mxPoint x="656" y="448" as="targetPoint" />
            <Array as="points">
              <mxPoint x="660" y="447" />
              <mxPoint x="660" y="700" />
              <mxPoint x="400" y="700" />
              <mxPoint x="400" y="584" />
            </Array>
          </mxGeometry>
        </mxCell>
        <mxCell id="A9Hma009ptqyfzRSZnZo-230" value="" style="endArrow=classic;html=1;rounded=1;strokeWidth=4;strokeColor=#4D4D4D;exitX=0.25;exitY=1;exitDx=0;exitDy=0;curved=0;" parent="1" source="A9Hma009ptqyfzRSZnZo-100" target="kTDSInc0vKNJEKg1OHYj-116" edge="1">
          <mxGeometry width="50" height="50" relative="1" as="geometry">
            <mxPoint x="720" y="448" as="sourcePoint" />
            <mxPoint x="400" y="440" as="targetPoint" />
            <Array as="points">
              <mxPoint x="315" y="440" />
            </Array>
          </mxGeometry>
        </mxCell>
        <mxCell id="A9Hma009ptqyfzRSZnZo-232" value="" style="endArrow=classic;html=1;rounded=1;strokeWidth=2;strokeColor=#FF0000;exitX=1;exitY=0.25;exitDx=0;exitDy=0;jumpStyle=arc;curved=0;" parent="1" source="A9Hma009ptqyfzRSZnZo-102" edge="1">
          <mxGeometry width="50" height="50" relative="1" as="geometry">
            <mxPoint x="910" y="448" as="sourcePoint" />
            <mxPoint x="1000" y="240" as="targetPoint" />
            <Array as="points">
              <mxPoint x="1000" y="166" />
            </Array>
          </mxGeometry>
        </mxCell>
        <mxCell id="A9Hma009ptqyfzRSZnZo-238" value="" style="endArrow=classic;html=1;rounded=0;edgeStyle=orthogonalEdgeStyle;strokeWidth=2;strokeColor=#FF0000;" parent="1" edge="1">
          <mxGeometry width="50" height="50" relative="1" as="geometry">
            <mxPoint x="1240" y="200" as="sourcePoint" />
            <mxPoint x="1400" y="240" as="targetPoint" />
            <Array as="points">
              <mxPoint x="1240" y="160" />
              <mxPoint x="1400" y="160" />
            </Array>
          </mxGeometry>
        </mxCell>
        <mxCell id="A9Hma009ptqyfzRSZnZo-239" value="" style="endArrow=none;html=1;rounded=1;edgeStyle=orthogonalEdgeStyle;strokeWidth=2;strokeColor=#FF0000;curved=0;" parent="1" edge="1">
          <mxGeometry width="50" height="50" relative="1" as="geometry">
            <mxPoint x="1080" y="200" as="sourcePoint" />
            <mxPoint x="1240" y="160" as="targetPoint" />
            <Array as="points">
              <mxPoint x="1080" y="160" />
            </Array>
          </mxGeometry>
        </mxCell>
        <mxCell id="A9Hma009ptqyfzRSZnZo-27" value="" style="group;labelBackgroundColor=none;" parent="1" vertex="1" connectable="0">
          <mxGeometry x="440" y="130" width="360" height="470" as="geometry" />
        </mxCell>
        <mxCell id="A9Hma009ptqyfzRSZnZo-15" value="" style="endArrow=none;html=1;rounded=0;" parent="A9Hma009ptqyfzRSZnZo-27" edge="1">
          <mxGeometry width="50" height="50" relative="1" as="geometry">
            <mxPoint x="51.42857142857142" y="470.00000000000006" as="sourcePoint" />
            <mxPoint y="402.85714285714295" as="targetPoint" />
          </mxGeometry>
        </mxCell>
        <mxCell id="A9Hma009ptqyfzRSZnZo-16" value="" style="endArrow=none;html=1;rounded=0;" parent="A9Hma009ptqyfzRSZnZo-27" edge="1">
          <mxGeometry width="50" height="50" relative="1" as="geometry">
            <mxPoint x="205.7142857142857" y="402.85714285714295" as="sourcePoint" />
            <mxPoint x="154.28571428571428" y="470.00000000000006" as="targetPoint" />
          </mxGeometry>
        </mxCell>
        <mxCell id="A9Hma009ptqyfzRSZnZo-17" value="" style="endArrow=none;html=1;rounded=0;" parent="A9Hma009ptqyfzRSZnZo-27" edge="1">
          <mxGeometry width="50" height="50" relative="1" as="geometry">
            <mxPoint x="154.28571428571428" y="470.00000000000006" as="sourcePoint" />
            <mxPoint x="51.42857142857142" y="470.00000000000006" as="targetPoint" />
          </mxGeometry>
        </mxCell>
        <mxCell id="A9Hma009ptqyfzRSZnZo-18" value="" style="endArrow=none;html=1;rounded=0;" parent="A9Hma009ptqyfzRSZnZo-27" edge="1">
          <mxGeometry width="50" height="50" relative="1" as="geometry">
            <mxPoint as="sourcePoint" />
            <mxPoint y="402.85714285714295" as="targetPoint" />
          </mxGeometry>
        </mxCell>
        <mxCell id="A9Hma009ptqyfzRSZnZo-19" value="" style="endArrow=none;html=1;rounded=0;" parent="A9Hma009ptqyfzRSZnZo-27" edge="1">
          <mxGeometry width="50" height="50" relative="1" as="geometry">
            <mxPoint x="205.7142857142857" y="134.28571428571428" as="sourcePoint" />
            <mxPoint x="205.7142857142857" y="402.85714285714295" as="targetPoint" />
          </mxGeometry>
        </mxCell>
        <mxCell id="A9Hma009ptqyfzRSZnZo-20" value="" style="endArrow=none;html=1;rounded=0;" parent="A9Hma009ptqyfzRSZnZo-27" edge="1">
          <mxGeometry width="50" height="50" relative="1" as="geometry">
            <mxPoint as="sourcePoint" />
            <mxPoint x="360" as="targetPoint" />
          </mxGeometry>
        </mxCell>
        <mxCell id="A9Hma009ptqyfzRSZnZo-21" value="" style="endArrow=none;html=1;rounded=0;" parent="A9Hma009ptqyfzRSZnZo-27" edge="1">
          <mxGeometry width="50" height="50" relative="1" as="geometry">
            <mxPoint x="205.7142857142857" y="134.28571428571428" as="sourcePoint" />
            <mxPoint x="257.1428571428571" y="134.28571428571428" as="targetPoint" />
          </mxGeometry>
        </mxCell>
        <mxCell id="A9Hma009ptqyfzRSZnZo-23" value="" style="endArrow=none;html=1;rounded=0;" parent="A9Hma009ptqyfzRSZnZo-27" edge="1">
          <mxGeometry width="50" height="50" relative="1" as="geometry">
            <mxPoint x="257.1428571428571" y="134.28571428571428" as="sourcePoint" />
            <mxPoint x="257.1428571428571" y="335.71428571428567" as="targetPoint" />
          </mxGeometry>
        </mxCell>
        <mxCell id="A9Hma009ptqyfzRSZnZo-24" value="" style="endArrow=none;html=1;rounded=0;" parent="A9Hma009ptqyfzRSZnZo-27" edge="1">
          <mxGeometry width="50" height="50" relative="1" as="geometry">
            <mxPoint x="360" y="335.71428571428567" as="sourcePoint" />
            <mxPoint x="334.2857142857142" y="369.2857142857143" as="targetPoint" />
          </mxGeometry>
        </mxCell>
        <mxCell id="A9Hma009ptqyfzRSZnZo-25" value="" style="endArrow=none;html=1;rounded=0;" parent="A9Hma009ptqyfzRSZnZo-27" edge="1">
          <mxGeometry width="50" height="50" relative="1" as="geometry">
            <mxPoint x="257.1428571428571" y="335.71428571428567" as="sourcePoint" />
            <mxPoint x="282.85714285714283" y="369.2857142857143" as="targetPoint" />
          </mxGeometry>
        </mxCell>
        <mxCell id="A9Hma009ptqyfzRSZnZo-26" value="" style="endArrow=none;html=1;rounded=0;" parent="A9Hma009ptqyfzRSZnZo-27" edge="1">
          <mxGeometry width="50" height="50" relative="1" as="geometry">
            <mxPoint x="282.85714285714283" y="369.2857142857143" as="sourcePoint" />
            <mxPoint x="334.2857142857142" y="369.2857142857143" as="targetPoint" />
          </mxGeometry>
        </mxCell>
        <mxCell id="A9Hma009ptqyfzRSZnZo-236" style="edgeStyle=orthogonalEdgeStyle;rounded=1;orthogonalLoop=1;jettySize=auto;html=1;exitX=1;exitY=0.25;exitDx=0;exitDy=0;strokeWidth=2;strokeColor=#FF0000;endArrow=none;endFill=0;startArrow=classic;startFill=1;jumpStyle=arc;curved=0;" parent="A9Hma009ptqyfzRSZnZo-27" source="A9Hma009ptqyfzRSZnZo-103" edge="1">
          <mxGeometry relative="1" as="geometry">
            <mxPoint x="480" y="70" as="targetPoint" />
            <Array as="points">
              <mxPoint x="420" y="140" />
              <mxPoint x="420" y="70" />
            </Array>
          </mxGeometry>
        </mxCell>
        <mxCell id="A9Hma009ptqyfzRSZnZo-102" value="&lt;font style=&quot;font-size: 16px;&quot;&gt;过热器&lt;/font&gt;" style="rounded=0;whiteSpace=wrap;html=1;" parent="A9Hma009ptqyfzRSZnZo-27" vertex="1">
          <mxGeometry x="90" y="20.00111111111111" width="205.7142857142857" height="65.27777777777777" as="geometry" />
        </mxCell>
        <mxCell id="A9Hma009ptqyfzRSZnZo-237" style="edgeStyle=orthogonalEdgeStyle;rounded=1;orthogonalLoop=1;jettySize=auto;html=1;exitX=0.5;exitY=0;exitDx=0;exitDy=0;strokeWidth=2;strokeColor=#FF0000;jumpStyle=arc;curved=0;" parent="A9Hma009ptqyfzRSZnZo-27" source="A9Hma009ptqyfzRSZnZo-103" edge="1">
          <mxGeometry relative="1" as="geometry">
            <mxPoint x="720" y="110" as="targetPoint" />
            <Array as="points">
              <mxPoint x="309" y="60" />
              <mxPoint x="720" y="60" />
            </Array>
          </mxGeometry>
        </mxCell>
        <mxCell id="A9Hma009ptqyfzRSZnZo-103" value="&lt;font style=&quot;font-size: 16px;&quot;&gt;再热器&lt;/font&gt;" style="rounded=0;whiteSpace=wrap;html=1;" parent="A9Hma009ptqyfzRSZnZo-27" vertex="1">
          <mxGeometry x="270" y="130.55555555555554" width="77.14285714285714" height="39.16666666666667" as="geometry" />
        </mxCell>
        <mxCell id="A9Hma009ptqyfzRSZnZo-104" value="&lt;font style=&quot;font-size: 16px;&quot;&gt;省煤器&lt;/font&gt;" style="rounded=0;whiteSpace=wrap;html=1;" parent="A9Hma009ptqyfzRSZnZo-27" vertex="1">
          <mxGeometry x="270" y="182.77777777777777" width="77.14285714285714" height="39.16666666666667" as="geometry" />
        </mxCell>
        <mxCell id="A9Hma009ptqyfzRSZnZo-105" value="&lt;font style=&quot;font-size: 16px;&quot;&gt;SCR&lt;/font&gt;" style="rounded=0;whiteSpace=wrap;html=1;" parent="A9Hma009ptqyfzRSZnZo-27" vertex="1">
          <mxGeometry x="270" y="235.00000000000003" width="77.14285714285714" height="39.16666666666667" as="geometry" />
        </mxCell>
        <mxCell id="A9Hma009ptqyfzRSZnZo-106" value="&lt;font style=&quot;font-size: 14px;&quot;&gt;空气预热器&lt;/font&gt;" style="rounded=0;whiteSpace=wrap;html=1;" parent="A9Hma009ptqyfzRSZnZo-27" vertex="1">
          <mxGeometry x="270" y="287.22222222222223" width="77.14285714285714" height="39.16666666666667" as="geometry" />
        </mxCell>
        <mxCell id="A9Hma009ptqyfzRSZnZo-22" value="" style="endArrow=none;html=1;rounded=0;" parent="A9Hma009ptqyfzRSZnZo-27" edge="1">
          <mxGeometry width="50" height="50" relative="1" as="geometry">
            <mxPoint x="360" as="sourcePoint" />
            <mxPoint x="360" y="335.71428571428567" as="targetPoint" />
          </mxGeometry>
        </mxCell>
        <mxCell id="A9Hma009ptqyfzRSZnZo-118" value="&lt;font style=&quot;font-size: 16px;&quot;&gt;水冷壁&lt;/font&gt;" style="rounded=0;whiteSpace=wrap;html=1;" parent="A9Hma009ptqyfzRSZnZo-27" vertex="1">
          <mxGeometry x="69.99571428571427" y="219.99888888888887" width="77.14285714285714" height="78.33333333333334" as="geometry" />
        </mxCell>
        <mxCell id="kTDSInc0vKNJEKg1OHYj-118" value="&lt;font style=&quot;font-size: 16px;&quot;&gt;燃&lt;br&gt;烧&lt;br&gt;器&lt;/font&gt;" style="text;html=1;align=center;verticalAlign=middle;resizable=0;points=[];autosize=1;strokeColor=none;fillColor=none;" parent="A9Hma009ptqyfzRSZnZo-27" vertex="1">
          <mxGeometry y="274.17" width="34" height="70" as="geometry" />
        </mxCell>
        <mxCell id="kTDSInc0vKNJEKg1OHYj-126" value="&lt;font color=&quot;#cc6600&quot; style=&quot;font-size: 20px;&quot;&gt;烟气&lt;/font&gt;" style="html=1;shadow=0;dashed=0;align=center;verticalAlign=middle;shape=mxgraph.arrows2.bendArrow;dy=10.88;dx=30.31;notch=0;arrowHead=55;rounded=1;strokeColor=#CC6600;fillColor=#CC6600;opacity=70;" parent="A9Hma009ptqyfzRSZnZo-27" vertex="1">
          <mxGeometry x="79" y="22" width="90" height="109.72" as="geometry" />
        </mxCell>
        <mxCell id="A9Hma009ptqyfzRSZnZo-240" value="&lt;font style=&quot;font-size: 16px;&quot;&gt;原煤仓&lt;/font&gt;" style="text;html=1;align=center;verticalAlign=middle;resizable=0;points=[];autosize=1;strokeColor=none;fillColor=none;" parent="1" vertex="1">
          <mxGeometry x="143" y="306" width="66" height="31" as="geometry" />
        </mxCell>
        <mxCell id="A9Hma009ptqyfzRSZnZo-243" value="&lt;font style=&quot;font-size: 16px;&quot;&gt;引风机&lt;/font&gt;" style="text;html=1;align=center;verticalAlign=middle;resizable=0;points=[];autosize=1;strokeColor=none;fillColor=none;" parent="1" vertex="1">
          <mxGeometry x="1090" y="85" width="70" height="30" as="geometry" />
        </mxCell>
        <mxCell id="kTDSInc0vKNJEKg1OHYj-11" style="edgeStyle=orthogonalEdgeStyle;rounded=1;orthogonalLoop=1;jettySize=auto;html=1;exitX=0.5;exitY=0;exitDx=0;exitDy=0;entryX=0.75;entryY=0;entryDx=0;entryDy=0;strokeWidth=2;strokeColor=#FF0000;curved=0;" parent="1" source="kTDSInc0vKNJEKg1OHYj-4" target="A9Hma009ptqyfzRSZnZo-102" edge="1">
          <mxGeometry relative="1" as="geometry" />
        </mxCell>
        <mxCell id="uE5XVZn2w7kGCcReYyKL-3" style="edgeStyle=orthogonalEdgeStyle;rounded=1;orthogonalLoop=1;jettySize=auto;html=1;exitX=0;exitY=1;exitDx=0;exitDy=0;strokeWidth=2;curved=0;strokeColor=#3399FF;" parent="1" source="kTDSInc0vKNJEKg1OHYj-4" target="uE5XVZn2w7kGCcReYyKL-1" edge="1">
          <mxGeometry relative="1" as="geometry" />
        </mxCell>
        <mxCell id="kTDSInc0vKNJEKg1OHYj-4" value="" style="ellipse;whiteSpace=wrap;html=1;aspect=fixed;gradientColor=#3399FF;fillColor=#FF0000;opacity=60;" parent="1" vertex="1">
          <mxGeometry x="420" y="60" width="60" height="60" as="geometry" />
        </mxCell>
        <mxCell id="kTDSInc0vKNJEKg1OHYj-5" style="rounded=0;orthogonalLoop=1;jettySize=auto;html=1;exitX=1;exitY=0.5;exitDx=0;exitDy=0;entryX=0;entryY=0.5;entryDx=0;entryDy=0;endArrow=none;endFill=0;" parent="1" source="kTDSInc0vKNJEKg1OHYj-4" target="kTDSInc0vKNJEKg1OHYj-4" edge="1">
          <mxGeometry relative="1" as="geometry" />
        </mxCell>
        <mxCell id="kTDSInc0vKNJEKg1OHYj-7" style="edgeStyle=orthogonalEdgeStyle;rounded=1;orthogonalLoop=1;jettySize=auto;html=1;exitX=1;exitY=0.25;exitDx=0;exitDy=0;entryX=1;entryY=1;entryDx=0;entryDy=0;strokeWidth=2;strokeColor=#3399FF;jumpStyle=none;curved=0;" parent="1" source="A9Hma009ptqyfzRSZnZo-104" target="kTDSInc0vKNJEKg1OHYj-4" edge="1">
          <mxGeometry relative="1" as="geometry">
            <Array as="points">
              <mxPoint x="810" y="323" />
              <mxPoint x="810" y="111" />
            </Array>
          </mxGeometry>
        </mxCell>
        <mxCell id="kTDSInc0vKNJEKg1OHYj-10" style="edgeStyle=orthogonalEdgeStyle;rounded=1;orthogonalLoop=1;jettySize=auto;html=1;exitX=0.25;exitY=0;exitDx=0;exitDy=0;entryX=0.5;entryY=1;entryDx=0;entryDy=0;strokeColor=#FF0000;strokeWidth=2;curved=0;" parent="1" source="A9Hma009ptqyfzRSZnZo-118" target="kTDSInc0vKNJEKg1OHYj-4" edge="1">
          <mxGeometry relative="1" as="geometry" />
        </mxCell>
        <mxCell id="kTDSInc0vKNJEKg1OHYj-127" style="edgeStyle=orthogonalEdgeStyle;rounded=1;orthogonalLoop=1;jettySize=auto;html=1;exitX=0;exitY=0.5;exitDx=0;exitDy=0;entryX=1;entryY=0.75;entryDx=0;entryDy=0;strokeWidth=2;strokeColor=#3399FF;curved=0;" parent="1" source="kTDSInc0vKNJEKg1OHYj-12" target="A9Hma009ptqyfzRSZnZo-104" edge="1">
          <mxGeometry relative="1" as="geometry" />
        </mxCell>
        <mxCell id="kTDSInc0vKNJEKg1OHYj-12" value="" style="rounded=0;whiteSpace=wrap;html=1;" parent="1" vertex="1">
          <mxGeometry x="920" y="399" width="50" height="40" as="geometry" />
        </mxCell>
        <mxCell id="kTDSInc0vKNJEKg1OHYj-13" style="rounded=0;orthogonalLoop=1;jettySize=auto;html=1;exitX=1;exitY=0.5;exitDx=0;exitDy=0;entryX=0;entryY=0.5;entryDx=0;entryDy=0;endArrow=none;endFill=0;strokeColor=#3399FF;" parent="1" source="kTDSInc0vKNJEKg1OHYj-12" target="kTDSInc0vKNJEKg1OHYj-12" edge="1">
          <mxGeometry relative="1" as="geometry">
            <Array as="points">
              <mxPoint x="960" y="419" />
              <mxPoint x="950" y="399" />
              <mxPoint x="940" y="439" />
              <mxPoint x="930" y="419" />
            </Array>
          </mxGeometry>
        </mxCell>
        <mxCell id="kTDSInc0vKNJEKg1OHYj-17" style="edgeStyle=orthogonalEdgeStyle;rounded=0;orthogonalLoop=1;jettySize=auto;html=1;exitX=0;exitY=0.5;exitDx=0;exitDy=0;" parent="1" source="kTDSInc0vKNJEKg1OHYj-15" edge="1">
          <mxGeometry relative="1" as="geometry">
            <mxPoint x="970" y="419" as="targetPoint" />
          </mxGeometry>
        </mxCell>
        <mxCell id="kTDSInc0vKNJEKg1OHYj-15" value="" style="rounded=0;whiteSpace=wrap;html=1;" parent="1" vertex="1">
          <mxGeometry x="990" y="399" width="50" height="40" as="geometry" />
        </mxCell>
        <mxCell id="kTDSInc0vKNJEKg1OHYj-16" style="rounded=0;orthogonalLoop=1;jettySize=auto;html=1;exitX=1;exitY=0.5;exitDx=0;exitDy=0;entryX=0;entryY=0.5;entryDx=0;entryDy=0;endArrow=none;endFill=0;strokeColor=#3399FF;" parent="1" source="kTDSInc0vKNJEKg1OHYj-15" target="kTDSInc0vKNJEKg1OHYj-15" edge="1">
          <mxGeometry relative="1" as="geometry">
            <Array as="points">
              <mxPoint x="1030" y="419" />
              <mxPoint x="1020" y="399" />
              <mxPoint x="1010" y="439" />
              <mxPoint x="1000" y="419" />
            </Array>
          </mxGeometry>
        </mxCell>
        <mxCell id="kTDSInc0vKNJEKg1OHYj-20" style="edgeStyle=orthogonalEdgeStyle;rounded=0;orthogonalLoop=1;jettySize=auto;html=1;exitX=0;exitY=0.5;exitDx=0;exitDy=0;" parent="1" source="kTDSInc0vKNJEKg1OHYj-18" edge="1">
          <mxGeometry relative="1" as="geometry">
            <mxPoint x="1040" y="419" as="targetPoint" />
          </mxGeometry>
        </mxCell>
        <mxCell id="kTDSInc0vKNJEKg1OHYj-62" style="edgeStyle=orthogonalEdgeStyle;rounded=1;orthogonalLoop=1;jettySize=auto;html=1;exitX=1;exitY=1;exitDx=0;exitDy=0;entryX=0;entryY=1;entryDx=0;entryDy=0;strokeWidth=2;strokeColor=#FF0000;curved=0;" parent="1" source="kTDSInc0vKNJEKg1OHYj-18" target="kTDSInc0vKNJEKg1OHYj-22" edge="1">
          <mxGeometry relative="1" as="geometry">
            <Array as="points">
              <mxPoint x="1110" y="469" />
              <mxPoint x="1200" y="469" />
            </Array>
          </mxGeometry>
        </mxCell>
        <mxCell id="kTDSInc0vKNJEKg1OHYj-18" value="" style="rounded=0;whiteSpace=wrap;html=1;" parent="1" vertex="1">
          <mxGeometry x="1060" y="399" width="50" height="40" as="geometry" />
        </mxCell>
        <mxCell id="kTDSInc0vKNJEKg1OHYj-19" style="rounded=0;orthogonalLoop=1;jettySize=auto;html=1;exitX=1;exitY=0.5;exitDx=0;exitDy=0;entryX=0;entryY=0.5;entryDx=0;entryDy=0;endArrow=none;endFill=0;strokeColor=#3399FF;" parent="1" source="kTDSInc0vKNJEKg1OHYj-18" target="kTDSInc0vKNJEKg1OHYj-18" edge="1">
          <mxGeometry relative="1" as="geometry">
            <Array as="points">
              <mxPoint x="1100" y="419" />
              <mxPoint x="1090" y="399" />
              <mxPoint x="1080" y="439" />
              <mxPoint x="1070" y="419" />
            </Array>
          </mxGeometry>
        </mxCell>
        <mxCell id="kTDSInc0vKNJEKg1OHYj-47" style="edgeStyle=orthogonalEdgeStyle;rounded=0;orthogonalLoop=1;jettySize=auto;html=1;exitX=0;exitY=0.5;exitDx=0;exitDy=0;" parent="1" source="kTDSInc0vKNJEKg1OHYj-22" edge="1">
          <mxGeometry relative="1" as="geometry">
            <mxPoint x="1170.0000000000002" y="419.1739130434785" as="targetPoint" />
          </mxGeometry>
        </mxCell>
        <mxCell id="kTDSInc0vKNJEKg1OHYj-22" value="&lt;font style=&quot;font-size: 14px;&quot;&gt;除氧器&lt;/font&gt;" style="rounded=0;whiteSpace=wrap;html=1;" parent="1" vertex="1">
          <mxGeometry x="1200" y="399" width="50" height="40" as="geometry" />
        </mxCell>
        <mxCell id="kTDSInc0vKNJEKg1OHYj-54" style="edgeStyle=orthogonalEdgeStyle;rounded=0;orthogonalLoop=1;jettySize=auto;html=1;exitX=0;exitY=0.5;exitDx=0;exitDy=0;entryX=1;entryY=0.5;entryDx=0;entryDy=0;" parent="1" source="kTDSInc0vKNJEKg1OHYj-26" target="kTDSInc0vKNJEKg1OHYj-22" edge="1">
          <mxGeometry relative="1" as="geometry" />
        </mxCell>
        <mxCell id="kTDSInc0vKNJEKg1OHYj-64" style="edgeStyle=orthogonalEdgeStyle;rounded=1;orthogonalLoop=1;jettySize=auto;html=1;exitX=1;exitY=1;exitDx=0;exitDy=0;entryX=0;entryY=1;entryDx=0;entryDy=0;strokeWidth=2;strokeColor=#FF0000;curved=0;" parent="1" source="kTDSInc0vKNJEKg1OHYj-26" target="kTDSInc0vKNJEKg1OHYj-28" edge="1">
          <mxGeometry relative="1" as="geometry">
            <Array as="points">
              <mxPoint x="1320" y="469" />
              <mxPoint x="1340" y="469" />
            </Array>
          </mxGeometry>
        </mxCell>
        <mxCell id="kTDSInc0vKNJEKg1OHYj-26" value="" style="rounded=0;whiteSpace=wrap;html=1;" parent="1" vertex="1">
          <mxGeometry x="1270" y="399" width="50" height="40" as="geometry" />
        </mxCell>
        <mxCell id="kTDSInc0vKNJEKg1OHYj-27" style="rounded=0;orthogonalLoop=1;jettySize=auto;html=1;exitX=1;exitY=0.5;exitDx=0;exitDy=0;entryX=0;entryY=0.5;entryDx=0;entryDy=0;endArrow=none;endFill=0;strokeColor=#3399FF;" parent="1" source="kTDSInc0vKNJEKg1OHYj-26" target="kTDSInc0vKNJEKg1OHYj-26" edge="1">
          <mxGeometry relative="1" as="geometry">
            <Array as="points">
              <mxPoint x="1310" y="419" />
              <mxPoint x="1300" y="399" />
              <mxPoint x="1290" y="439" />
              <mxPoint x="1280" y="419" />
            </Array>
          </mxGeometry>
        </mxCell>
        <mxCell id="kTDSInc0vKNJEKg1OHYj-53" style="edgeStyle=orthogonalEdgeStyle;rounded=0;orthogonalLoop=1;jettySize=auto;html=1;exitX=0;exitY=0.5;exitDx=0;exitDy=0;entryX=1;entryY=0.5;entryDx=0;entryDy=0;" parent="1" source="kTDSInc0vKNJEKg1OHYj-28" target="kTDSInc0vKNJEKg1OHYj-26" edge="1">
          <mxGeometry relative="1" as="geometry" />
        </mxCell>
        <mxCell id="kTDSInc0vKNJEKg1OHYj-65" style="edgeStyle=orthogonalEdgeStyle;rounded=1;orthogonalLoop=1;jettySize=auto;html=1;exitX=1;exitY=1;exitDx=0;exitDy=0;entryX=0;entryY=1;entryDx=0;entryDy=0;strokeWidth=2;strokeColor=#FF0000;curved=0;" parent="1" source="kTDSInc0vKNJEKg1OHYj-28" target="kTDSInc0vKNJEKg1OHYj-30" edge="1">
          <mxGeometry relative="1" as="geometry">
            <Array as="points">
              <mxPoint x="1390" y="469" />
              <mxPoint x="1410" y="469" />
            </Array>
          </mxGeometry>
        </mxCell>
        <mxCell id="kTDSInc0vKNJEKg1OHYj-28" value="" style="rounded=0;whiteSpace=wrap;html=1;" parent="1" vertex="1">
          <mxGeometry x="1340" y="399" width="50" height="40" as="geometry" />
        </mxCell>
        <mxCell id="kTDSInc0vKNJEKg1OHYj-29" style="rounded=0;orthogonalLoop=1;jettySize=auto;html=1;exitX=1;exitY=0.5;exitDx=0;exitDy=0;entryX=0;entryY=0.5;entryDx=0;entryDy=0;endArrow=none;endFill=0;strokeColor=#3399FF;" parent="1" source="kTDSInc0vKNJEKg1OHYj-28" target="kTDSInc0vKNJEKg1OHYj-28" edge="1">
          <mxGeometry relative="1" as="geometry">
            <Array as="points">
              <mxPoint x="1380" y="419" />
              <mxPoint x="1370" y="399" />
              <mxPoint x="1360" y="439" />
              <mxPoint x="1350" y="419" />
            </Array>
          </mxGeometry>
        </mxCell>
        <mxCell id="kTDSInc0vKNJEKg1OHYj-51" style="edgeStyle=orthogonalEdgeStyle;rounded=0;orthogonalLoop=1;jettySize=auto;html=1;exitX=0;exitY=0.5;exitDx=0;exitDy=0;entryX=1;entryY=0.5;entryDx=0;entryDy=0;" parent="1" source="kTDSInc0vKNJEKg1OHYj-30" target="kTDSInc0vKNJEKg1OHYj-28" edge="1">
          <mxGeometry relative="1" as="geometry" />
        </mxCell>
        <mxCell id="kTDSInc0vKNJEKg1OHYj-66" style="edgeStyle=orthogonalEdgeStyle;rounded=1;orthogonalLoop=1;jettySize=auto;html=1;exitX=1;exitY=1;exitDx=0;exitDy=0;strokeWidth=2;strokeColor=#FF0000;curved=0;" parent="1" source="kTDSInc0vKNJEKg1OHYj-30" edge="1">
          <mxGeometry relative="1" as="geometry">
            <mxPoint x="1480" y="439.2352941176471" as="targetPoint" />
            <Array as="points">
              <mxPoint x="1460" y="469" />
              <mxPoint x="1480" y="469" />
            </Array>
          </mxGeometry>
        </mxCell>
        <mxCell id="kTDSInc0vKNJEKg1OHYj-30" value="" style="rounded=0;whiteSpace=wrap;html=1;" parent="1" vertex="1">
          <mxGeometry x="1410" y="399" width="50" height="40" as="geometry" />
        </mxCell>
        <mxCell id="kTDSInc0vKNJEKg1OHYj-31" style="rounded=0;orthogonalLoop=1;jettySize=auto;html=1;exitX=1;exitY=0.5;exitDx=0;exitDy=0;entryX=0;entryY=0.5;entryDx=0;entryDy=0;endArrow=none;endFill=0;strokeColor=#3399FF;" parent="1" source="kTDSInc0vKNJEKg1OHYj-30" target="kTDSInc0vKNJEKg1OHYj-30" edge="1">
          <mxGeometry relative="1" as="geometry">
            <Array as="points">
              <mxPoint x="1450" y="419" />
              <mxPoint x="1440" y="399" />
              <mxPoint x="1430" y="439" />
              <mxPoint x="1420" y="419" />
            </Array>
          </mxGeometry>
        </mxCell>
        <mxCell id="kTDSInc0vKNJEKg1OHYj-52" style="edgeStyle=orthogonalEdgeStyle;rounded=0;orthogonalLoop=1;jettySize=auto;html=1;exitX=0;exitY=0.5;exitDx=0;exitDy=0;entryX=1;entryY=0.5;entryDx=0;entryDy=0;" parent="1" source="kTDSInc0vKNJEKg1OHYj-32" target="kTDSInc0vKNJEKg1OHYj-30" edge="1">
          <mxGeometry relative="1" as="geometry" />
        </mxCell>
        <mxCell id="kTDSInc0vKNJEKg1OHYj-91" style="edgeStyle=orthogonalEdgeStyle;rounded=1;orthogonalLoop=1;jettySize=auto;html=1;exitX=0.75;exitY=0;exitDx=0;exitDy=0;entryX=0;entryY=0.75;entryDx=0;entryDy=0;strokeWidth=2;strokeColor=#FF0000;curved=0;" parent="1" source="kTDSInc0vKNJEKg1OHYj-32" target="kTDSInc0vKNJEKg1OHYj-85" edge="1">
          <mxGeometry relative="1" as="geometry">
            <Array as="points">
              <mxPoint x="1518" y="385" />
            </Array>
          </mxGeometry>
        </mxCell>
        <mxCell id="kTDSInc0vKNJEKg1OHYj-32" value="" style="rounded=0;whiteSpace=wrap;html=1;" parent="1" vertex="1">
          <mxGeometry x="1480" y="399" width="50" height="40" as="geometry" />
        </mxCell>
        <mxCell id="kTDSInc0vKNJEKg1OHYj-33" style="rounded=0;orthogonalLoop=1;jettySize=auto;html=1;exitX=1;exitY=0.5;exitDx=0;exitDy=0;entryX=0;entryY=0.5;entryDx=0;entryDy=0;endArrow=none;endFill=0;strokeColor=#3399FF;" parent="1" source="kTDSInc0vKNJEKg1OHYj-32" target="kTDSInc0vKNJEKg1OHYj-32" edge="1">
          <mxGeometry relative="1" as="geometry">
            <Array as="points">
              <mxPoint x="1520" y="419" />
              <mxPoint x="1510" y="399" />
              <mxPoint x="1500" y="439" />
              <mxPoint x="1490" y="419" />
            </Array>
          </mxGeometry>
        </mxCell>
        <mxCell id="kTDSInc0vKNJEKg1OHYj-38" style="edgeStyle=orthogonalEdgeStyle;rounded=0;orthogonalLoop=1;jettySize=auto;html=1;exitX=1;exitY=0.5;exitDx=0;exitDy=0;" parent="1" source="kTDSInc0vKNJEKg1OHYj-34" edge="1">
          <mxGeometry relative="1" as="geometry">
            <mxPoint x="1140.0000000000002" y="419.1739130434785" as="targetPoint" />
          </mxGeometry>
        </mxCell>
        <mxCell id="kTDSInc0vKNJEKg1OHYj-39" style="edgeStyle=orthogonalEdgeStyle;rounded=0;orthogonalLoop=1;jettySize=auto;html=1;exitX=1;exitY=0.5;exitDx=0;exitDy=0;" parent="1" source="kTDSInc0vKNJEKg1OHYj-34" edge="1">
          <mxGeometry relative="1" as="geometry">
            <mxPoint x="1140.0000000000002" y="419.1739130434785" as="targetPoint" />
          </mxGeometry>
        </mxCell>
        <mxCell id="kTDSInc0vKNJEKg1OHYj-48" style="edgeStyle=orthogonalEdgeStyle;rounded=0;orthogonalLoop=1;jettySize=auto;html=1;exitX=0;exitY=0.5;exitDx=0;exitDy=0;entryX=1;entryY=0.5;entryDx=0;entryDy=0;" parent="1" source="kTDSInc0vKNJEKg1OHYj-34" target="kTDSInc0vKNJEKg1OHYj-18" edge="1">
          <mxGeometry relative="1" as="geometry" />
        </mxCell>
        <mxCell id="kTDSInc0vKNJEKg1OHYj-34" value="" style="ellipse;whiteSpace=wrap;html=1;aspect=fixed;" parent="1" vertex="1">
          <mxGeometry x="1140" y="404" width="30" height="30" as="geometry" />
        </mxCell>
        <mxCell id="kTDSInc0vKNJEKg1OHYj-37" style="rounded=0;orthogonalLoop=1;jettySize=auto;html=1;exitX=0.5;exitY=0;exitDx=0;exitDy=0;entryX=0;entryY=0.5;entryDx=0;entryDy=0;endArrow=none;endFill=0;" parent="1" source="kTDSInc0vKNJEKg1OHYj-34" target="kTDSInc0vKNJEKg1OHYj-34" edge="1">
          <mxGeometry relative="1" as="geometry" />
        </mxCell>
        <mxCell id="kTDSInc0vKNJEKg1OHYj-41" style="edgeStyle=orthogonalEdgeStyle;rounded=0;orthogonalLoop=1;jettySize=auto;html=1;exitX=1;exitY=0.5;exitDx=0;exitDy=0;entryX=0;entryY=0.5;entryDx=0;entryDy=0;endArrow=none;endFill=0;" parent="1" source="kTDSInc0vKNJEKg1OHYj-34" target="kTDSInc0vKNJEKg1OHYj-34" edge="1">
          <mxGeometry relative="1" as="geometry" />
        </mxCell>
        <mxCell id="kTDSInc0vKNJEKg1OHYj-45" style="rounded=0;orthogonalLoop=1;jettySize=auto;html=1;exitX=0;exitY=0.5;exitDx=0;exitDy=0;entryX=0.5;entryY=1;entryDx=0;entryDy=0;endArrow=none;endFill=0;" parent="1" source="kTDSInc0vKNJEKg1OHYj-34" target="kTDSInc0vKNJEKg1OHYj-34" edge="1">
          <mxGeometry relative="1" as="geometry" />
        </mxCell>
        <mxCell id="kTDSInc0vKNJEKg1OHYj-46" value="&lt;font style=&quot;font-size: 16px;&quot;&gt;给水泵&lt;/font&gt;" style="text;html=1;align=center;verticalAlign=middle;resizable=0;points=[];autosize=1;strokeColor=none;fillColor=none;" parent="1" vertex="1">
          <mxGeometry x="1120" y="434" width="70" height="30" as="geometry" />
        </mxCell>
        <mxCell id="kTDSInc0vKNJEKg1OHYj-58" value="" style="endArrow=classic;html=1;rounded=1;entryX=0.5;entryY=0;entryDx=0;entryDy=0;strokeColor=#FF0000;curved=0;strokeWidth=2;" parent="1" target="kTDSInc0vKNJEKg1OHYj-12" edge="1">
          <mxGeometry width="50" height="50" relative="1" as="geometry">
            <mxPoint x="945" y="307" as="sourcePoint" />
            <mxPoint x="945" y="377.0000000000001" as="targetPoint" />
          </mxGeometry>
        </mxCell>
        <mxCell id="kTDSInc0vKNJEKg1OHYj-59" value="" style="endArrow=classic;html=1;rounded=1;entryX=0.25;entryY=0;entryDx=0;entryDy=0;strokeColor=#FF0000;strokeWidth=2;edgeStyle=orthogonalEdgeStyle;" parent="1" target="kTDSInc0vKNJEKg1OHYj-15" edge="1">
          <mxGeometry width="50" height="50" relative="1" as="geometry">
            <mxPoint x="991" y="285" as="sourcePoint" />
            <mxPoint x="1002.5" y="375" as="targetPoint" />
            <Array as="points">
              <mxPoint x="992" y="285" />
              <mxPoint x="992" y="370" />
              <mxPoint x="1002" y="370" />
            </Array>
          </mxGeometry>
        </mxCell>
        <mxCell id="kTDSInc0vKNJEKg1OHYj-60" value="" style="endArrow=classic;html=1;rounded=1;entryX=0;entryY=1;entryDx=0;entryDy=0;strokeColor=#FF0000;strokeWidth=2;exitX=1;exitY=1;exitDx=0;exitDy=0;edgeStyle=orthogonalEdgeStyle;" parent="1" source="kTDSInc0vKNJEKg1OHYj-12" target="kTDSInc0vKNJEKg1OHYj-15" edge="1">
          <mxGeometry width="50" height="50" relative="1" as="geometry">
            <mxPoint x="955" y="336" as="sourcePoint" />
            <mxPoint x="955" y="409" as="targetPoint" />
            <Array as="points">
              <mxPoint x="970" y="469" />
              <mxPoint x="990" y="469" />
            </Array>
          </mxGeometry>
        </mxCell>
        <mxCell id="kTDSInc0vKNJEKg1OHYj-61" value="" style="endArrow=classic;html=1;rounded=1;entryX=0;entryY=1;entryDx=0;entryDy=0;strokeColor=#FF0000;strokeWidth=2;exitX=1;exitY=1;exitDx=0;exitDy=0;edgeStyle=orthogonalEdgeStyle;" parent="1" source="kTDSInc0vKNJEKg1OHYj-15" target="kTDSInc0vKNJEKg1OHYj-18" edge="1">
          <mxGeometry width="50" height="50" relative="1" as="geometry">
            <mxPoint x="980" y="449" as="sourcePoint" />
            <mxPoint x="1000" y="449" as="targetPoint" />
            <Array as="points">
              <mxPoint x="1040" y="469" />
              <mxPoint x="1060" y="469" />
            </Array>
          </mxGeometry>
        </mxCell>
        <mxCell id="kTDSInc0vKNJEKg1OHYj-67" value="" style="endArrow=classic;html=1;rounded=1;entryX=0.5;entryY=0;entryDx=0;entryDy=0;strokeColor=#FF0000;strokeWidth=2;edgeStyle=orthogonalEdgeStyle;" parent="1" target="kTDSInc0vKNJEKg1OHYj-18" edge="1">
          <mxGeometry width="50" height="50" relative="1" as="geometry">
            <mxPoint x="1120" y="300" as="sourcePoint" />
            <mxPoint x="955" y="409" as="targetPoint" />
            <Array as="points">
              <mxPoint x="1120" y="370" />
              <mxPoint x="1085" y="370" />
            </Array>
          </mxGeometry>
        </mxCell>
        <mxCell id="kTDSInc0vKNJEKg1OHYj-68" value="" style="endArrow=classic;html=1;rounded=1;entryX=0.5;entryY=0;entryDx=0;entryDy=0;strokeColor=#FF0000;curved=0;strokeWidth=2;" parent="1" target="kTDSInc0vKNJEKg1OHYj-22" edge="1">
          <mxGeometry width="50" height="50" relative="1" as="geometry">
            <mxPoint x="1225" y="313" as="sourcePoint" />
            <mxPoint x="1225" y="402" as="targetPoint" />
          </mxGeometry>
        </mxCell>
        <mxCell id="kTDSInc0vKNJEKg1OHYj-69" value="" style="endArrow=classic;html=1;rounded=1;entryX=0.5;entryY=0;entryDx=0;entryDy=0;strokeColor=#FF0000;strokeWidth=2;edgeStyle=orthogonalEdgeStyle;" parent="1" target="kTDSInc0vKNJEKg1OHYj-26" edge="1">
          <mxGeometry width="50" height="50" relative="1" as="geometry">
            <mxPoint x="1340" y="310" as="sourcePoint" />
            <mxPoint x="1235" y="409" as="targetPoint" />
            <Array as="points">
              <mxPoint x="1340" y="370" />
              <mxPoint x="1295" y="370" />
            </Array>
          </mxGeometry>
        </mxCell>
        <mxCell id="kTDSInc0vKNJEKg1OHYj-70" value="" style="endArrow=classic;html=1;rounded=1;entryX=0.5;entryY=0;entryDx=0;entryDy=0;strokeColor=#FF0000;curved=0;strokeWidth=2;" parent="1" target="kTDSInc0vKNJEKg1OHYj-28" edge="1">
          <mxGeometry width="50" height="50" relative="1" as="geometry">
            <mxPoint x="1365" y="297" as="sourcePoint" />
            <mxPoint x="1365" y="396" as="targetPoint" />
          </mxGeometry>
        </mxCell>
        <mxCell id="kTDSInc0vKNJEKg1OHYj-71" value="" style="endArrow=classic;html=1;rounded=1;entryX=0.5;entryY=0;entryDx=0;entryDy=0;strokeColor=#FF0000;curved=0;strokeWidth=2;" parent="1" target="kTDSInc0vKNJEKg1OHYj-30" edge="1">
          <mxGeometry width="50" height="50" relative="1" as="geometry">
            <mxPoint x="1435" y="298" as="sourcePoint" />
            <mxPoint x="1435" y="397" as="targetPoint" />
          </mxGeometry>
        </mxCell>
        <mxCell id="kTDSInc0vKNJEKg1OHYj-72" value="" style="endArrow=classic;html=1;rounded=1;entryX=0.5;entryY=0;entryDx=0;entryDy=0;strokeColor=#FF0000;strokeWidth=2;edgeStyle=orthogonalEdgeStyle;" parent="1" target="kTDSInc0vKNJEKg1OHYj-32" edge="1">
          <mxGeometry width="50" height="50" relative="1" as="geometry">
            <mxPoint x="1460" y="310" as="sourcePoint" />
            <mxPoint x="1265" y="439" as="targetPoint" />
            <Array as="points">
              <mxPoint x="1460" y="370" />
              <mxPoint x="1505" y="370" />
            </Array>
          </mxGeometry>
        </mxCell>
        <mxCell id="kTDSInc0vKNJEKg1OHYj-79" style="edgeStyle=orthogonalEdgeStyle;rounded=0;orthogonalLoop=1;jettySize=auto;html=1;exitX=1;exitY=0.5;exitDx=0;exitDy=0;" parent="1" source="kTDSInc0vKNJEKg1OHYj-81" edge="1">
          <mxGeometry relative="1" as="geometry">
            <mxPoint x="1550.0000000000002" y="419.1739130434785" as="targetPoint" />
          </mxGeometry>
        </mxCell>
        <mxCell id="kTDSInc0vKNJEKg1OHYj-80" style="edgeStyle=orthogonalEdgeStyle;rounded=0;orthogonalLoop=1;jettySize=auto;html=1;exitX=1;exitY=0.5;exitDx=0;exitDy=0;" parent="1" source="kTDSInc0vKNJEKg1OHYj-81" edge="1">
          <mxGeometry relative="1" as="geometry">
            <mxPoint x="1550.0000000000002" y="419.1739130434785" as="targetPoint" />
          </mxGeometry>
        </mxCell>
        <mxCell id="kTDSInc0vKNJEKg1OHYj-89" style="edgeStyle=orthogonalEdgeStyle;rounded=0;orthogonalLoop=1;jettySize=auto;html=1;entryX=1;entryY=0.5;entryDx=0;entryDy=0;" parent="1" source="kTDSInc0vKNJEKg1OHYj-81" target="kTDSInc0vKNJEKg1OHYj-32" edge="1">
          <mxGeometry relative="1" as="geometry" />
        </mxCell>
        <mxCell id="kTDSInc0vKNJEKg1OHYj-81" value="" style="ellipse;whiteSpace=wrap;html=1;aspect=fixed;" parent="1" vertex="1">
          <mxGeometry x="1550" y="404" width="30" height="30" as="geometry" />
        </mxCell>
        <mxCell id="kTDSInc0vKNJEKg1OHYj-82" style="rounded=0;orthogonalLoop=1;jettySize=auto;html=1;exitX=0.5;exitY=0;exitDx=0;exitDy=0;entryX=0;entryY=0.5;entryDx=0;entryDy=0;endArrow=none;endFill=0;" parent="1" source="kTDSInc0vKNJEKg1OHYj-81" target="kTDSInc0vKNJEKg1OHYj-81" edge="1">
          <mxGeometry relative="1" as="geometry" />
        </mxCell>
        <mxCell id="kTDSInc0vKNJEKg1OHYj-83" style="edgeStyle=orthogonalEdgeStyle;rounded=0;orthogonalLoop=1;jettySize=auto;html=1;exitX=1;exitY=0.5;exitDx=0;exitDy=0;entryX=0;entryY=0.5;entryDx=0;entryDy=0;endArrow=none;endFill=0;" parent="1" source="kTDSInc0vKNJEKg1OHYj-81" target="kTDSInc0vKNJEKg1OHYj-81" edge="1">
          <mxGeometry relative="1" as="geometry" />
        </mxCell>
        <mxCell id="kTDSInc0vKNJEKg1OHYj-84" style="rounded=0;orthogonalLoop=1;jettySize=auto;html=1;exitX=0;exitY=0.5;exitDx=0;exitDy=0;entryX=0.5;entryY=1;entryDx=0;entryDy=0;endArrow=none;endFill=0;" parent="1" source="kTDSInc0vKNJEKg1OHYj-81" target="kTDSInc0vKNJEKg1OHYj-81" edge="1">
          <mxGeometry relative="1" as="geometry" />
        </mxCell>
        <mxCell id="kTDSInc0vKNJEKg1OHYj-88" style="edgeStyle=orthogonalEdgeStyle;rounded=1;orthogonalLoop=1;jettySize=auto;html=1;exitX=0.5;exitY=1;exitDx=0;exitDy=0;entryX=1;entryY=0.5;entryDx=0;entryDy=0;curved=0;strokeColor=#FF0000;strokeWidth=2;" parent="1" source="kTDSInc0vKNJEKg1OHYj-85" target="kTDSInc0vKNJEKg1OHYj-81" edge="1">
          <mxGeometry relative="1" as="geometry" />
        </mxCell>
        <mxCell id="kTDSInc0vKNJEKg1OHYj-106" style="edgeStyle=orthogonalEdgeStyle;rounded=0;orthogonalLoop=1;jettySize=auto;html=1;exitX=1;exitY=0.25;exitDx=0;exitDy=0;entryX=0.071;entryY=0.653;entryDx=0;entryDy=0;entryPerimeter=0;" parent="1" source="kTDSInc0vKNJEKg1OHYj-85" target="A9Hma009ptqyfzRSZnZo-195" edge="1">
          <mxGeometry relative="1" as="geometry" />
        </mxCell>
        <mxCell id="kTDSInc0vKNJEKg1OHYj-85" value="&lt;font style=&quot;font-size: 14px;&quot;&gt;冷凝器&lt;/font&gt;" style="rounded=0;whiteSpace=wrap;html=1;" parent="1" vertex="1">
          <mxGeometry x="1630" y="343" width="50" height="56" as="geometry" />
        </mxCell>
        <mxCell id="kTDSInc0vKNJEKg1OHYj-87" value="" style="endArrow=classic;html=1;rounded=1;entryX=0.5;entryY=0;entryDx=0;entryDy=0;strokeColor=#FF0000;strokeWidth=2;edgeStyle=orthogonalEdgeStyle;" parent="1" target="kTDSInc0vKNJEKg1OHYj-85" edge="1">
          <mxGeometry width="50" height="50" relative="1" as="geometry">
            <mxPoint x="1480" y="320" as="sourcePoint" />
            <mxPoint x="1445" y="409" as="targetPoint" />
          </mxGeometry>
        </mxCell>
        <mxCell id="kTDSInc0vKNJEKg1OHYj-92" style="edgeStyle=orthogonalEdgeStyle;rounded=0;orthogonalLoop=1;jettySize=auto;html=1;exitX=1;exitY=0.25;exitDx=0;exitDy=0;entryX=1;entryY=0.75;entryDx=0;entryDy=0;endArrow=none;endFill=0;" parent="1" source="kTDSInc0vKNJEKg1OHYj-85" target="kTDSInc0vKNJEKg1OHYj-85" edge="1">
          <mxGeometry relative="1" as="geometry">
            <Array as="points">
              <mxPoint x="1680" y="370" />
              <mxPoint x="1680" y="370" />
            </Array>
          </mxGeometry>
        </mxCell>
        <mxCell id="kTDSInc0vKNJEKg1OHYj-97" style="edgeStyle=orthogonalEdgeStyle;rounded=0;orthogonalLoop=1;jettySize=auto;html=1;exitX=1;exitY=0.5;exitDx=0;exitDy=0;" parent="1" source="kTDSInc0vKNJEKg1OHYj-99" edge="1">
          <mxGeometry relative="1" as="geometry">
            <mxPoint x="1700.0000000000002" y="385.1739130434785" as="targetPoint" />
          </mxGeometry>
        </mxCell>
        <mxCell id="kTDSInc0vKNJEKg1OHYj-98" style="edgeStyle=orthogonalEdgeStyle;rounded=0;orthogonalLoop=1;jettySize=auto;html=1;exitX=1;exitY=0.5;exitDx=0;exitDy=0;" parent="1" source="kTDSInc0vKNJEKg1OHYj-99" edge="1">
          <mxGeometry relative="1" as="geometry">
            <mxPoint x="1700.0000000000002" y="385.1739130434785" as="targetPoint" />
          </mxGeometry>
        </mxCell>
        <mxCell id="kTDSInc0vKNJEKg1OHYj-105" style="edgeStyle=orthogonalEdgeStyle;rounded=0;orthogonalLoop=1;jettySize=auto;html=1;entryX=1;entryY=0.75;entryDx=0;entryDy=0;" parent="1" source="kTDSInc0vKNJEKg1OHYj-99" target="kTDSInc0vKNJEKg1OHYj-85" edge="1">
          <mxGeometry relative="1" as="geometry" />
        </mxCell>
        <mxCell id="kTDSInc0vKNJEKg1OHYj-99" value="" style="ellipse;whiteSpace=wrap;html=1;aspect=fixed;" parent="1" vertex="1">
          <mxGeometry x="1700" y="370" width="30" height="30" as="geometry" />
        </mxCell>
        <mxCell id="kTDSInc0vKNJEKg1OHYj-100" style="rounded=0;orthogonalLoop=1;jettySize=auto;html=1;exitX=0.5;exitY=0;exitDx=0;exitDy=0;entryX=0;entryY=0.5;entryDx=0;entryDy=0;endArrow=none;endFill=0;" parent="1" source="kTDSInc0vKNJEKg1OHYj-99" target="kTDSInc0vKNJEKg1OHYj-99" edge="1">
          <mxGeometry relative="1" as="geometry" />
        </mxCell>
        <mxCell id="kTDSInc0vKNJEKg1OHYj-101" style="edgeStyle=orthogonalEdgeStyle;rounded=0;orthogonalLoop=1;jettySize=auto;html=1;exitX=1;exitY=0.5;exitDx=0;exitDy=0;entryX=0;entryY=0.5;entryDx=0;entryDy=0;endArrow=none;endFill=0;" parent="1" source="kTDSInc0vKNJEKg1OHYj-99" target="kTDSInc0vKNJEKg1OHYj-99" edge="1">
          <mxGeometry relative="1" as="geometry" />
        </mxCell>
        <mxCell id="kTDSInc0vKNJEKg1OHYj-102" style="rounded=0;orthogonalLoop=1;jettySize=auto;html=1;exitX=0;exitY=0.5;exitDx=0;exitDy=0;entryX=0.5;entryY=1;entryDx=0;entryDy=0;endArrow=none;endFill=0;" parent="1" source="kTDSInc0vKNJEKg1OHYj-99" target="kTDSInc0vKNJEKg1OHYj-99" edge="1">
          <mxGeometry relative="1" as="geometry" />
        </mxCell>
        <mxCell id="kTDSInc0vKNJEKg1OHYj-107" style="edgeStyle=orthogonalEdgeStyle;rounded=0;orthogonalLoop=1;jettySize=auto;html=1;exitX=1;exitY=0.5;exitDx=0;exitDy=0;entryX=0.044;entryY=0.786;entryDx=0;entryDy=0;entryPerimeter=0;startArrow=classic;startFill=1;endArrow=none;endFill=0;" parent="1" source="kTDSInc0vKNJEKg1OHYj-99" target="A9Hma009ptqyfzRSZnZo-195" edge="1">
          <mxGeometry relative="1" as="geometry" />
        </mxCell>
        <mxCell id="kTDSInc0vKNJEKg1OHYj-108" value="&lt;font style=&quot;font-size: 16px;&quot;&gt;冷凝器泵&lt;/font&gt;" style="text;html=1;align=center;verticalAlign=middle;resizable=0;points=[];autosize=1;strokeColor=none;fillColor=none;" parent="1" vertex="1">
          <mxGeometry x="1520" y="440" width="90" height="30" as="geometry" />
        </mxCell>
        <mxCell id="kTDSInc0vKNJEKg1OHYj-109" value="&lt;font style=&quot;font-size: 16px;&quot;&gt;循环水泵&lt;/font&gt;" style="text;html=1;align=center;verticalAlign=middle;resizable=0;points=[];autosize=1;strokeColor=none;fillColor=none;" parent="1" vertex="1">
          <mxGeometry x="1670" y="404.35" width="90" height="30" as="geometry" />
        </mxCell>
        <mxCell id="kTDSInc0vKNJEKg1OHYj-110" value="&lt;font style=&quot;font-size: 16px;&quot;&gt;高压给水加热器&lt;/font&gt;" style="text;html=1;align=center;verticalAlign=middle;resizable=0;points=[];autosize=1;strokeColor=none;fillColor=none;" parent="1" vertex="1">
          <mxGeometry x="950" y="470" width="140" height="30" as="geometry" />
        </mxCell>
        <mxCell id="kTDSInc0vKNJEKg1OHYj-111" value="&lt;font style=&quot;font-size: 16px;&quot;&gt;低压给水加热器&lt;/font&gt;" style="text;html=1;align=center;verticalAlign=middle;resizable=0;points=[];autosize=1;strokeColor=none;fillColor=none;" parent="1" vertex="1">
          <mxGeometry x="1330" y="470" width="140" height="30" as="geometry" />
        </mxCell>
        <mxCell id="kTDSInc0vKNJEKg1OHYj-112" value="&lt;font style=&quot;font-size: 16px;&quot;&gt;汽包&lt;/font&gt;" style="text;html=1;align=center;verticalAlign=middle;resizable=0;points=[];autosize=1;strokeColor=none;fillColor=none;" parent="1" vertex="1">
          <mxGeometry x="360" y="70" width="60" height="30" as="geometry" />
        </mxCell>
        <mxCell id="kTDSInc0vKNJEKg1OHYj-113" style="edgeStyle=orthogonalEdgeStyle;rounded=1;orthogonalLoop=1;jettySize=auto;html=1;strokeColor=#4D4D4D;strokeWidth=4;curved=0;" parent="1" edge="1">
          <mxGeometry relative="1" as="geometry">
            <mxPoint x="550" y="650" as="targetPoint" />
            <mxPoint x="550" y="600" as="sourcePoint" />
          </mxGeometry>
        </mxCell>
        <mxCell id="kTDSInc0vKNJEKg1OHYj-114" value="&lt;font style=&quot;font-size: 10px;&quot;&gt;炉渣&lt;/font&gt;" style="text;html=1;align=center;verticalAlign=middle;resizable=0;points=[];autosize=1;strokeColor=none;fillColor=none;" parent="1" vertex="1">
          <mxGeometry x="550" y="628" width="40" height="30" as="geometry" />
        </mxCell>
        <mxCell id="kTDSInc0vKNJEKg1OHYj-116" value="" style="rounded=0;whiteSpace=wrap;html=1;" parent="1" vertex="1">
          <mxGeometry x="430" y="420" width="10" height="40" as="geometry" />
        </mxCell>
        <mxCell id="uE5XVZn2w7kGCcReYyKL-2" style="edgeStyle=orthogonalEdgeStyle;rounded=1;orthogonalLoop=1;jettySize=auto;html=1;exitX=0.5;exitY=1;exitDx=0;exitDy=0;entryX=0.5;entryY=1;entryDx=0;entryDy=0;strokeWidth=2;curved=0;strokeColor=#3399FF;" parent="1" source="uE5XVZn2w7kGCcReYyKL-1" target="A9Hma009ptqyfzRSZnZo-118" edge="1">
          <mxGeometry relative="1" as="geometry">
            <Array as="points">
              <mxPoint x="381" y="500" />
              <mxPoint x="549" y="500" />
            </Array>
          </mxGeometry>
        </mxCell>
        <mxCell id="uE5XVZn2w7kGCcReYyKL-1" value="&lt;font style=&quot;font-size: 16px;&quot;&gt;下&lt;br&gt;降&lt;br&gt;管&lt;/font&gt;" style="rounded=0;whiteSpace=wrap;html=1;" parent="1" vertex="1">
          <mxGeometry x="370" y="241" width="23" height="109" as="geometry" />
        </mxCell>
      </root>
    </mxGraphModel>
  </diagram>
</mxfile>
